<svg aria-hidden="true" style="position: absolute; width: 0; height: 0; overflow: hidden;" version="1.1"
    xmlns="http://www.w3.org/2000/svg" xmlns:xlink="http://www.w3.org/1999/xlink">
    <defs>
       <symbol id="icon-logo" viewBox="0 0 32 32">
            <path fill="#00d0a8" style="fill: var(--color1, #00d0a8)" d="M25.894 13.156l-14.028 8.384c-0.262 0.156-0.603 0.072-0.759-0.191l-5.406-9.047c-0.156-0.262-0.072-0.603 0.191-0.759l14.028-8.384c0.262-0.156 0.603-0.072 0.759 0.191l5.406 9.047c0.159 0.262 0.072 0.603-0.191 0.759z"></path>
            <path fill="#00a383" style="fill: var(--color2, #00a383)" d="M6.619 13.838l14.982-8.953 2.22 3.715-14.982 8.953-2.22-3.715z"></path>
            <path fill="#4755ea" style="fill: var(--color3, #4755ea)" d="M26.959 28.919h-22.741c-0.612 0-1.109-0.497-1.109-1.109v-16.359c0-0.613 0.497-1.109 1.109-1.109h22.738c0.613 0 1.109 0.497 1.109 1.109v16.363c0.003 0.613-0.494 1.106-1.106 1.106z"></path>
            <path fill="#2d39bd" style="fill: var(--color4, #2d39bd)" d="M28.069 27.813v-7.097l-9.159 1.059 5.341 7.144h2.706c0.616 0 1.113-0.494 1.113-1.106z"></path>
            <path fill="#fff" style="fill: var(--color5, #fff)" d="M21.353 22.875h6.981c0.306 0 0.553-0.247 0.553-0.553v-5.381c0-0.306-0.247-0.553-0.553-0.553h-6.981c-1.791 0-3.244 1.453-3.244 3.244s1.453 3.244 3.244 3.244z"></path>
            <path fill="#4755ea" style="fill: var(--color3, #4755ea)" d="M19.769 19.631c0 0.367 0.146 0.719 0.405 0.979s0.612 0.405 0.979 0.405c0.367 0 0.719-0.146 0.979-0.405s0.405-0.612 0.405-0.979c0-0.367-0.146-0.719-0.405-0.979s-0.612-0.405-0.979-0.405c-0.367 0-0.719 0.146-0.979 0.405s-0.405 0.612-0.405 0.979z"></path>
            <path fill="#2d39bd" style="fill: var(--color4, #2d39bd)" d="M4.219 10.341c-0.612 0-1.109 0.497-1.109 1.109v16.363c0 0.613 0.497 1.109 1.109 1.109h3.513v-18.581h-3.513z"></path>
        </symbol>
    </defs>
</svg>